<svg width="24" height="24" viewBox="0 0 24 24" fill="none" xmlns="http://www.w3.org/2000/svg">
<g clip-path="url(#clip0_99_141)">
<path d="M4 18.09C4 18.3552 3.89464 18.6096 3.70711 18.7971C3.51957 18.9846 3.26522 19.09 3 19.09C2.73478 19.09 2.48043 18.9846 2.29289 18.7971C2.10536 18.6096 2 18.3552 2 18.09V12C2 6.477 6.477 2 12 2C17.523 2 22 6.477 22 12V15.086C22 15.3512 21.8946 15.6056 21.7071 15.7931C21.5196 15.9806 21.2652 16.086 21 16.086C20.7348 16.086 20.4804 15.9806 20.2929 15.7931C20.1054 15.6056 20 15.3512 20 15.086V12C20 9.87827 19.1571 7.84344 17.6569 6.34315C16.1566 4.84285 14.1217 4 12 4C9.87827 4 7.84344 4.84285 6.34315 6.34315C4.84285 7.84344 4 9.87827 4 12V18.09ZM4 12H6C6.53043 12 7.03914 12.2107 7.41421 12.5858C7.78929 12.9609 8 13.4696 8 14V19C8 19.5304 7.78929 20.0391 7.41421 20.4142C7.03914 20.7893 6.53043 21 6 21H4C3.46957 21 2.96086 20.7893 2.58579 20.4142C2.21071 20.0391 2 19.5304 2 19V14C2 13.4696 2.21071 12.9609 2.58579 12.5858C2.96086 12.2107 3.46957 12 4 12ZM4 14V19H6V14H4ZM18 12H20C20.5304 12 21.0391 12.2107 21.4142 12.5858C21.7893 12.9609 22 13.4696 22 14V19C22 19.5304 21.7893 20.0391 21.4142 20.4142C21.0391 20.7893 20.5304 21 20 21H18C17.4696 21 16.9609 20.7893 16.5858 20.4142C16.2107 20.0391 16 19.5304 16 19V14C16 13.4696 16.2107 12.9609 16.5858 12.5858C16.9609 12.2107 17.4696 12 18 12ZM18 14V19H20V14H18Z" fill="#3792EB"/>
</g>
<defs>
<clipPath id="clip0_99_141">
<rect width="24" height="24" fill="white"/>
</clipPath>
</defs>
</svg>
